<svg xmlns="http://www.w3.org/2000/svg" width="780" height="440" viewBox="0 0 780 440"><defs><style>.a{fill:#9180f4;}.b{fill:#ffcd1c;}.c{fill:#162020;}.d{fill:#f3f4f4;}.e{fill:#6f5ed3;}.f{fill:#c1c1f7;}.g{fill:#ef588b;}.h{fill:#fff;}</style></defs><rect class="a" x="0.0018" y="0.0014" width="780" height="440"/><polygon class="b" points="455.632 120.364 317.764 170.609 317.764 114.905 455.632 64.66 479.306 92.512 455.632 120.364"/><path class="c" d="M455.32,65.8374l22.6731,26.6743-22.9526,27.003L318.764,169.1805V115.6051L455.32,65.8374m.3113-1.1778L317.764,114.9052v55.7041l137.8677-50.2456,23.6743-27.852L455.6317,64.66Z"/><rect class="d" x="317.7919" y="84.8298" width="9.8464" height="290.5106"/><path class="c" d="M327.6387,375.9658H317.792a.6256.6256,0,0,1-.625-.625V84.83a.6253.6253,0,0,1,.625-.625h9.8467a.6253.6253,0,0,1,.625.625V375.3408A.6256.6256,0,0,1,327.6387,375.9658Zm-9.2217-1.25h8.5967V85.4546H318.417Z"/><path class="c" d="M250.6553,103.97a5.5128,5.5128,0,1,1,4.23-1.9678h0A5.5051,5.5051,0,0,1,250.6553,103.97Zm.0078-9.7754a4.2623,4.2623,0,1,0,2.7383.9951A4.2595,4.2595,0,0,0,250.6631,94.1948Zm3.7431,7.4058h0Z"/><path class="c" d="M242.8271,148.1738a.6228.6228,0,0,1-.4013-.146l-8.58-7.1972a.6249.6249,0,0,1,.8027-.958l8.58,7.1972a.625.625,0,0,1-.4014,1.104Z"/><path class="c" d="M234.9385,148.8647a.6248.6248,0,0,1-.4785-1.0268l7.1972-8.5791a.6249.6249,0,1,1,.9571.8037l-7.1973,8.5791A.6236.6236,0,0,1,234.9385,148.8647Z"/><path class="c" d="M281.1924,142.3428a.626.626,0,0,1-.6231-.57l-.7646-8.7354a.6257.6257,0,0,1,.5683-.6772l8.7354-.7652a.638.638,0,0,1,.4561.1436.6278.6278,0,0,1,.2216.4243l.7647,8.7349a.6258.6258,0,0,1-.5684.6772l-8.7353.7656C281.2285,142.3418,281.2109,142.3428,281.1924,142.3428Zm-.0879-8.7925.6562,7.49,7.49-.6562-.6563-7.49Z"/><path class="c" d="M348.8262,375.9658H296.6035a.625.625,0,0,1,0-1.25h52.2227a.625.625,0,0,1,0,1.25Z"/><polygon class="e" points="327.8 175.233 240.066 175.233 216.392 203.085 240.066 230.937 327.8 230.937 327.8 175.233"/><path class="c" d="M326.8,176.233v53.7041H240.5282l-22.8242-26.852,22.8242-26.8521H326.8m1-1H240.0658l-23.6742,27.8521,23.6742,27.852H327.8V175.233Z"/><polygon class="f" points="555.552 197.278 466.935 218.229 378.318 197.278 378.318 348.192 465.248 368.744 466.935 369.143 468.621 368.744 555.552 348.192 555.552 197.278"/><path class="c" d="M466.9346,369.7852l-1.83-.4327-87.4111-20.666V196.4883l89.2412,21.0981,89.2422-21.0981V348.6865l-.4815.1143Zm-87.9912-22.087L466.9346,368.5l87.9922-20.8018v-149.63l-87.9922,20.8022-.1436-.0337-87.8476-20.7685Z"/><path class="c" d="M442.4258,286.8916a.6573.6573,0,0,1-.1436-.0166l-40.0468-9.4668a.6251.6251,0,0,1-.4815-.6035l-.3691-48.4346a.6257.6257,0,0,1,.7685-.6133L442.2,237.2246a.6249.6249,0,0,1,.4814.6035l.3692,48.4336a.6258.6258,0,0,1-.625.63ZM403,276.3047l38.7949,9.1709-.3594-47.1475-38.7949-9.1719Z"/><path class="c" d="M442.0576,336.9873a.6088.6088,0,0,1-.1445-.0166l-40.0469-9.4678a.6251.6251,0,0,1,.2871-1.2168L442.2,335.7539a.6251.6251,0,0,1-.1426,1.2334Z"/><path class="c" d="M491.4443,286.8916a.6258.6258,0,0,1-.625-.63l.3692-48.4336a.6249.6249,0,0,1,.4814-.6035l40.0459-9.4678a.63.63,0,0,1,.5332.12.6232.6232,0,0,1,.2354.4931l-.3682,48.4346a.625.625,0,0,1-.4814.6035l-40.0469,9.4668A.65.65,0,0,1,491.4443,286.8916Zm.99-48.5635-.3594,47.1475,38.7949-9.1709.3584-47.1485Z"/><path class="c" d="M491.8125,336.9873a.6251.6251,0,0,1-.1426-1.2334l40.0459-9.4678a.6251.6251,0,1,1,.2871,1.2168l-40.0459,9.4678A.6083.6083,0,0,1,491.8125,336.9873Z"/><path class="c" d="M491.8125,314.5342a.6251.6251,0,0,1-.1426-1.2334l40.0459-9.4668a.6251.6251,0,1,1,.2871,1.2168l-40.0459,9.4668A.6083.6083,0,0,1,491.8125,314.5342Z"/><polygon class="g" points="528.047 176.249 317.764 176.249 317.764 120.545 528.047 120.545 551.721 148.397 528.047 176.249"/><path class="c" d="M527.5847,121.545l22.8241,26.8521-22.8241,26.852H318.764V121.545H527.5847m.4624-1H317.764v55.7041H528.0471l23.6742-27.852L528.0471,120.545Z"/><path class="c" d="M450.4854,149.167H337.6973a.625.625,0,0,1,0-1.25H450.4854a.625.625,0,0,1,0,1.25Z"/><path class="h" d="M489.8994,168.0241c-2.879,0-4.84.0513-6.7964-.0153a24.196,24.196,0,0,1-5.2467-.5,10.394,10.394,0,0,1-5.6128-3.4159,11.0653,11.0653,0,0,1-2.4275-6.0172,45.8259,45.8259,0,0,1-.2544-5.0465c-.0021-3.3194-.0215-6.639.0084-9.9581a34.1709,34.1709,0,0,1,.3128-4.9448,10.3521,10.3521,0,0,1,4.4006-7.2653,10.86,10.86,0,0,1,5.1122-1.8291c3.9922-.4213,8-.2248,12.0017-.2649,1.7082-.0171,3.4168-.0078,5.1236.0715a17.1553,17.1553,0,0,1,5.3514.8777,10.0717,10.0717,0,0,1,4.6582,3.49,11.1041,11.1041,0,0,1,2.092,5.8889c.3848,5.0957.1877,10.2019.1766,15.3036a24.2152,24.2152,0,0,1-.3617,4.6777,10.66,10.66,0,0,1-3.0965,5.8772,10.4145,10.4145,0,0,1-4.8483,2.5549,19.6179,19.6179,0,0,1-3.3891.4136C494.3956,168.0882,491.6871,167.9923,489.8994,168.0241Zm15.3128-19.6213c.0058-2.4156.0374-4.8319-.0685-7.246a14.727,14.727,0,0,0-.4628-3.5828,6.7968,6.7968,0,0,0-1.9016-3.1414,7.606,7.606,0,0,0-4.64-1.8566c-1.8417-.177-3.6934-.1811-5.5415-.19-3.1555-.0161-6.3114-.04-9.4666.0483a27.29,27.29,0,0,0-3.7712.2671,6.8584,6.8584,0,0,0-4.4678,2.5206,8.1025,8.1025,0,0,0-1.5323,4.34c-.1512,1.5172-.1561,3.042-.1736,4.5627-.0441,3.8191-.0566,7.6393.0572,11.4576a15.8066,15.8066,0,0,0,.3723,3.3,6.8088,6.8088,0,0,0,2.3629,3.81,7.6569,7.6569,0,0,0,3.9695,1.528,37.81,37.81,0,0,0,4.4946.2c3.9062.02,7.8131.0655,11.7188-.0555a19.2587,19.2587,0,0,0,2.985-.27,6.9945,6.9945,0,0,0,4.0312-2.1095,7.24,7.24,0,0,0,1.7058-3.6112,29.8094,29.8094,0,0,0,.3172-4.8777C505.25,151.8,505.2122,150.1006,505.2122,148.4028Z"/><path class="h" d="M489.147,158.5025a10.1025,10.1025,0,1,1,10.1586-10.1107A10.0892,10.0892,0,0,1,489.147,158.5025Zm.0534-3.611a6.4834,6.4834,0,1,0-6.4842-6.4477A6.4807,6.4807,0,0,0,489.2,154.8915Z"/><path class="h" d="M502.04,137.9509a2.379,2.379,0,0,1-2.373,2.3913,2.4209,2.4209,0,0,1-2.4115-2.3758,2.3938,2.3938,0,0,1,2.3962-2.4114A2.3376,2.3376,0,0,1,502.04,137.9509Z"/><circle class="g" cx="565.6583" cy="302.3093" r="23.0675"/><path class="c" d="M565.6582,280.2419a22.0675,22.0675,0,1,1-22.0674,22.0674,22.0924,22.0924,0,0,1,22.0674-22.0674m0-1a23.0675,23.0675,0,1,0,23.0675,23.0674,23.0674,23.0674,0,0,0-23.0675-23.0674Z"/><path class="d" d="M565.6583,287.6721a9.28,9.28,0,0,0-9.28,9.28c0,5.1254,9.28,18.5607,9.28,18.5607s9.28-13.4353,9.28-18.5607A9.28,9.28,0,0,0,565.6583,287.6721Zm0,13.9205a4.64,4.64,0,1,1,4.64-4.64A4.64,4.64,0,0,1,565.6583,301.5926Z"/><path class="c" d="M565.6582,316.1377a.6263.6263,0,0,1-.5146-.2695c-.3829-.5557-9.3907-13.6553-9.3907-18.9161a9.9053,9.9053,0,0,1,19.8106,0c0,5.2608-9.0078,18.36-9.3906,18.9161A.6266.6266,0,0,1,565.6582,316.1377Zm0-27.8408a8.6651,8.6651,0,0,0-8.6553,8.6552c0,4.1934,6.7217,14.5508,8.6553,17.4444,1.9336-2.8936,8.6553-13.251,8.6553-17.4444A8.6651,8.6651,0,0,0,565.6582,288.2969Zm0,13.9209a5.2652,5.2652,0,1,1,5.2656-5.2657A5.2709,5.2709,0,0,1,565.6582,302.2178Zm0-9.28a4.0152,4.0152,0,1,0,4.0156,4.0146A4.0189,4.0189,0,0,0,565.6582,292.9375Z"/><circle class="b" cx="565.6583" cy="252.4336" r="23.0675"/><path class="c" d="M565.6582,230.3661a22.0675,22.0675,0,1,1-22.0674,22.0675,22.0924,22.0924,0,0,1,22.0674-22.0675m0-1a23.0675,23.0675,0,1,0,23.0675,23.0675,23.0675,23.0675,0,0,0-23.0675-23.0675Z"/><path class="d" d="M573.9835,244.9535h-.427a5.0082,5.0082,0,0,1-3.5692-1.4813l-1.0805-1.0826a1.8824,1.8824,0,0,0-1.3424-.5576H563.75a1.884,1.884,0,0,0-1.3414.5563l-1.0882,1.0885a5.01,5.01,0,0,1-3.5652,1.4767h-.4267a3.117,3.117,0,0,0-3.1161,3.1193l.0039,10.4124a3.12,3.12,0,0,0,3.1161,3.1165h16.6546a3.1172,3.1172,0,0,0,3.1167-3.119L577.1,248.07A3.1214,3.1214,0,0,0,573.9835,244.9535Z"/><path class="c" d="M573.9873,262.2266H557.333a3.746,3.746,0,0,1-3.7412-3.7412l-.0039-10.4122a3.741,3.741,0,0,1,3.7412-3.7451h.4258a4.3847,4.3847,0,0,0,3.123-1.2939l1.09-1.0879a2.4958,2.4958,0,0,1,1.7822-.7393h3.8145a2.5057,2.5057,0,0,1,1.7851.7412l1.08,1.0821a4.3874,4.3874,0,0,0,3.1269,1.2978h.4268a3.7477,3.7477,0,0,1,3.7422,3.7422l.0029,10.4121a3.7393,3.7393,0,0,1-3.7412,3.7442Zm-16.6582-16.6485a2.4941,2.4941,0,0,0-2.4912,2.4942l.0039,10.4131a2.4936,2.4936,0,0,0,2.4912,2.4912h16.6543a2.4924,2.4924,0,0,0,2.4912-2.4932l-.0029-10.4131a2.4966,2.4966,0,0,0-2.4922-2.4922h-.4268a5.6285,5.6285,0,0,1-4.0117-1.665l-1.08-1.082a1.2626,1.2626,0,0,0-.9-.3741H563.75a1.2556,1.2556,0,0,0-.8975.3721l-1.0908,1.09a5.6306,5.6306,0,0,1-4.0068,1.6592Z"/><circle class="b" cx="565.6583" cy="252.7414" r="5.2036"/><path class="c" d="M565.6582,248.5378a4.2036,4.2036,0,1,1-4.2036,4.2036,4.2084,4.2084,0,0,1,4.2036-4.2036m0-1a5.2036,5.2036,0,1,0,5.2037,5.2036,5.2037,5.2037,0,0,0-5.2037-5.2036Z"/><circle class="e" cx="372.7684" cy="252.1679" r="22.8018"/><path class="c" d="M372.7683,230.3661a21.8018,21.8018,0,1,1-21.8017,21.8018,21.8266,21.8266,0,0,1,21.8017-21.8018m0-1A22.8018,22.8018,0,1,0,395.57,252.1679a22.8018,22.8018,0,0,0-22.8019-22.8018Z"/><path class="d" d="M378.8638,264.0292h-12.06c-1.9718,0-5.7907-2.395-5.7907-6.6179V246.962a3.57,3.57,0,0,1,3.57-3.57h16.37a3.57,3.57,0,0,1,3.57,3.57v10.4493C384.5238,261.4169,380.8355,264.0292,378.8638,264.0292Z"/><path class="c" d="M378.8643,264.6543H366.8037a7.3481,7.3481,0,0,1-6.416-7.2432V246.9619a4.2,4.2,0,0,1,4.1953-4.1953h16.3711a4.2,4.2,0,0,1,4.1943,4.1953v10.4492C385.1484,261.9043,381.08,264.6543,378.8643,264.6543ZM364.583,244.0166a2.9487,2.9487,0,0,0-2.9453,2.9453v10.4492a6.1141,6.1141,0,0,0,5.166,5.9932h12.0606c1.538,0,5.0341-2.2647,5.0341-5.9932V246.9619a2.9485,2.9485,0,0,0-2.9443-2.9453Z"/><path class="c" d="M372.4922,252.793a5.4754,5.4754,0,0,1-5.4336-5.0235.625.625,0,0,1,1.2461-.0976,4.201,4.201,0,0,0,8.376,0,.625.625,0,0,1,1.2461.0976A5.4765,5.4765,0,0,1,372.4922,252.793Z"/><path class="c" d="M377.3027,243.9619a.6246.6246,0,0,1-.622-.5762,4.201,4.201,0,0,0-8.376,0,.64.64,0,0,1-.6719.5743.6243.6243,0,0,1-.5742-.6719,5.4509,5.4509,0,0,1,10.8682,0,.6243.6243,0,0,1-.5743.6719C377.3359,243.9609,377.3193,243.9619,377.3027,243.9619Z"/></svg>